<?xml version="1.0" encoding="UTF-8" standalone="no"?>
<!DOCTYPE svg PUBLIC "-//W3C//DTD SVG 1.1//EN" "http://www.w3.org/Graphics/SVG/1.1/DTD/svg11.dtd">
<svg width="100%" height="100%" viewBox="0 0 211 66" version="1.1" xmlns="http://www.w3.org/2000/svg" xmlns:xlink="http://www.w3.org/1999/xlink" xml:space="preserve" xmlns:serif="http://www.serif.com/" style="fill-rule:evenodd;clip-rule:evenodd;stroke-linejoin:round;stroke-miterlimit:2;">
    <g transform="matrix(1,0,0,1,-748.331,-1221.19)">
        <g transform="matrix(1.49176,0,0,3.27909,0,0)">
            <g transform="matrix(0.033781,7.31645e-20,-1.95436e-18,-0.179493,512.813,416.884)">
                <path d="M-206.005,197.268C978.769,116.503 2287.52,114.38 3693.45,195.982C3844.55,204.751 3884.06,222.374 3781.63,235.31C3679.21,248.246 3473.39,251.629 3322.29,242.86C2198.73,177.647 1152.83,177.029 206.005,241.574C63.204,251.308 -145.041,249.285 -258.739,237.059C-372.436,224.832 -348.807,207.002 -206.005,197.268Z" style="fill:white;"/>
            </g>
        </g>
    </g>
</svg>
